<svg xmlns="http://www.w3.org/2000/svg" width="112.224" height="112.5" viewBox="0 0 112.224 112.5"><defs><style>.a{fill:#c16a14;}.b{fill:#d6d6d2;}.c{fill:#e22342;}.d{fill:#c9183a;}.e{fill:#eaeae4;}</style></defs><g transform="translate(-0.628 0)"><path class="a" d="M11.332,407.9l-2.314-2.314a2.318,2.318,0,0,1,0-3.278l20-20a2.318,2.318,0,0,1,3.278,0l2.314,2.314a2.318,2.318,0,0,1,0,3.278l-20,20A2.318,2.318,0,0,1,11.332,407.9Z" transform="translate(-6.017 -297.776)"/><path class="b" d="M237.449,17.208c-12.717-12.716-35.6-10.45-51.114,5.064s-17.78,38.4-5.064,51.114,35.6,10.449,51.114-5.064S250.165,29.925,237.449,17.208ZM226.565,62.5a36.012,36.012,0,0,1-21.6,10.747c-7.155.709-13.5-1.31-17.877-5.684s-6.392-10.723-5.684-17.877a36.011,36.011,0,0,1,10.747-21.6,36.011,36.011,0,0,1,21.6-10.747c7.154-.709,13.5,1.31,17.877,5.684s6.392,10.723,5.684,17.877A36.01,36.01,0,0,1,226.565,62.5Z" transform="translate(-134.527 -7.003)"/><path class="c" d="M130.122,42.124h4.122a7.42,7.42,0,1,1,0,14.84h-4.122" transform="translate(-101.041 -32.868)"/><path class="d" d="M134.244,46.986a7.421,7.421,0,0,1,7.01,4.989,7.42,7.42,0,0,0-7.011-9.851h-4.122v4.862Z" transform="translate(-101.041 -32.868)"/><path class="e" d="M29.829,37.677l22.037-7.56V15.277L29.829,7.717Z" transform="translate(-22.785 -6.021)"/><path class="b" d="M29.829,22.7H51.866v-7.42L29.829,7.717Z" transform="translate(-22.785 -6.021)"/><path d="M104.121,9.982A30.231,30.231,0,0,0,84.53,1.343,40.962,40.962,0,0,0,63.6,5.7a1.684,1.684,0,0,0-.728,2.31l0,.008a1.688,1.688,0,0,0,2.225.724A37.577,37.577,0,0,1,84.29,4.726a26.89,26.89,0,0,1,17.432,7.654c12.035,12.035,9.764,33.889-5.064,48.716S59.978,78.2,47.943,66.161c-5.784-5.784-8.472-14-7.566-23.142A42.546,42.546,0,0,1,53.006,17.445,46.733,46.733,0,0,1,59.3,12.166a1.7,1.7,0,0,0,.444-2.311h0a1.684,1.684,0,0,0-2.373-.478,50.126,50.126,0,0,0-6.762,5.67A45.944,45.944,0,0,0,37,42.684c-.945,9.543,1.668,18.223,7.379,24.64L27.434,84.271a4.009,4.009,0,0,0-5.631.04L8.988,97.126a1.7,1.7,0,0,0,0,2.4h0a1.7,1.7,0,0,0,2.4,0L24.2,86.709a.621.621,0,0,1,.879,0l2.314,2.314a.623.623,0,0,1,0,.88l-20,20a.621.621,0,0,1-.879,0L4.2,107.589a.622.622,0,0,1,0-.88l1.923-1.923a1.7,1.7,0,0,0,0-2.4h0a1.7,1.7,0,0,0-2.4,0L1.8,104.312a4.018,4.018,0,0,0,0,5.676l2.249,2.249a4.133,4.133,0,0,0,2.654,1.233A3.993,3.993,0,0,0,9.792,112.3l20-20a4.017,4.017,0,0,0,.04-5.632L46.779,69.722a30.866,30.866,0,0,0,20.853,7.569q1.866,0,3.786-.189A45.942,45.942,0,0,0,99.057,63.5a45.945,45.945,0,0,0,13.606-27.638C113.671,25.688,110.637,16.5,104.121,9.982Z" transform="translate(0 -0.977)"/><path d="M209.092,91.965a22.577,22.577,0,0,0,16.3,6.32q1.448,0,2.943-.148A37.707,37.707,0,0,0,250.965,86.9,37.707,37.707,0,0,0,262.2,64.272c.76-7.669-1.432-14.5-6.172-19.244s-11.576-6.932-19.244-6.172a37.707,37.707,0,0,0-22.629,11.236A37.708,37.708,0,0,0,202.92,72.721C202.16,80.391,204.352,87.225,209.092,91.965Zm32.591-48.439,6.725,6.725-6.726,6.725-6.724-6.725Zm4.215-.581a18.058,18.058,0,0,1,6.471,3.345l-1.563,1.563ZM223.436,93.468l-6.724-6.724,6.725-6.725,6.724,6.724Zm-4.21.586A18.056,18.056,0,0,1,212.75,90.7l1.563-1.563Zm6.61-16.433L232.56,70.9l6.724,6.724-6.725,6.725Zm15.847,2.4,5.659,5.659a37.267,37.267,0,0,1-7.878,5.572l-4.506-4.506Zm2.4-2.4L250.8,70.9l4.506,4.506a37.256,37.256,0,0,1-5.571,7.876Zm-2.4-2.4L234.959,68.5l6.724-6.724,6.724,6.724Zm2.4-15.846,6.725-6.725,6.724,6.724L250.8,66.1Zm-4.8,0L232.56,66.1l-6.725-6.725,6.724-6.724Zm-15.846-2.4-5.658-5.658a37.268,37.268,0,0,1,7.876-5.571l4.505,4.505Zm-2.4,2.4L214.314,66.1l-4.505-4.505a37.251,37.251,0,0,1,5.572-7.878Zm2.4,2.4,6.725,6.725-6.725,6.725L216.712,68.5Zm-2.4,15.848-6.725,6.725-6.725-6.725,6.725-6.725Zm-9.124,9.123-1.563,1.563A18.063,18.063,0,0,1,207,81.831ZM228,94.762q-.58.058-1.152.089l5.71-5.71,3.615,3.615A30.474,30.474,0,0,1,228,94.762Zm28.817-22.65L253.2,68.5l5.711-5.711c-.022.381-.05.765-.089,1.152A30.47,30.47,0,0,1,256.818,72.113Zm1.3-16.948L253.2,50.251l1.564-1.564A18.065,18.065,0,0,1,258.118,55.164Zm-21-12.933c.386-.038.769-.067,1.15-.088l-5.71,5.71-3.615-3.615A30.483,30.483,0,0,1,237.119,42.231ZM208.3,64.882l3.615,3.615-5.71,5.71c.021-.381.05-.764.089-1.151A30.491,30.491,0,0,1,208.3,64.882Z" transform="translate(-157.728 -30.203)"/><path d="M22.821,33.036a1.7,1.7,0,0,0,1.536.224l21.77-7.468h3.839a9.116,9.116,0,0,0,0-18.232H46.127L24.357.092a1.7,1.7,0,0,0-2.246,1.6v29.96A1.7,1.7,0,0,0,22.821,33.036ZM25.5,29.282V18.372H44.148v4.513ZM55.69,16.676A5.731,5.731,0,0,1,49.966,22.4H47.54V10.952h2.426A5.731,5.731,0,0,1,55.69,16.676ZM44.148,10.467V14.98H25.5V4.07Z" transform="translate(-16.762 0)"/></g></svg>