<svg xmlns="http://www.w3.org/2000/svg" width="156.725" height="114.932" viewBox="0 0 156.725 114.932"><defs><style>.a{fill:#e8a864;}.b{fill:#e5e5e5;}.c{fill:#cfcfcf;}.d{fill:#4398d1;}.e{fill:#f2bb80;}.f{fill:#3e8cc7;}</style></defs><g transform="translate(0 -68.265)"><path class="a" d="M188.578,187.731H170.667v20.9h.17a10.442,10.442,0,0,0,2.891,5.673l7.387,7.387v44.406H212.46V221.688l5.746-7.661a10.461,10.461,0,0,0,2.019-5.4h.07v-20.9Z" transform="translate(-118.425 -82.897)"/><rect class="b" width="10.447" height="15.673" transform="translate(2.612 96.997)"/><rect class="c" width="10.447" height="7.836" transform="translate(2.612 104.833)"/><g transform="translate(13.061 70.877)"><path class="d" d="M49.2,119.465h0a6.529,6.529,0,0,1,6.53,6.53v28.733a6.529,6.529,0,0,1-6.53,6.53h0a6.529,6.529,0,0,1-6.53-6.53V126A6.529,6.529,0,0,1,49.2,119.465Z" transform="translate(-42.667 -106.404)"/><path class="d" d="M93.169,76.8h0a7.836,7.836,0,0,1,7.836,7.836v52.242a7.836,7.836,0,0,1-7.836,7.836h0a7.836,7.836,0,0,1-7.836-7.836V84.634A7.836,7.836,0,0,1,93.169,76.8Z" transform="translate(-72.273 -76.798)"/></g><rect class="b" width="10.447" height="15.673" transform="translate(143.664 96.997)"/><g transform="translate(114.932 70.877)"><path class="d" d="M433.2,161.258h0a6.529,6.529,0,0,1-6.53-6.53V126a6.529,6.529,0,0,1,6.53-6.53h0a6.529,6.529,0,0,1,6.53,6.53v28.733A6.529,6.529,0,0,1,433.2,161.258Z" transform="translate(-410.994 -106.404)"/><path class="d" d="M383.3,144.712h0a7.836,7.836,0,0,1-7.836-7.836V84.634A7.836,7.836,0,0,1,383.3,76.8h0a7.836,7.836,0,0,1,7.836,7.836v52.242A7.836,7.836,0,0,1,383.3,144.712Z" transform="translate(-375.467 -76.798)"/></g><path class="b" d="M194,162.131H136.533V177.8h73.139V162.131Z" transform="translate(-94.74 -65.133)"/><path class="c" d="M194,187.731H136.533v7.836h73.139v-7.836Z" transform="translate(-94.74 -82.897)"/><g transform="translate(57.466 86.549)"><path class="e" d="M192.957,128a5.223,5.223,0,0,0-5.224,5.224v7.836a5.224,5.224,0,1,0,10.449,0v-7.836A5.223,5.223,0,0,0,192.957,128Z" transform="translate(-187.733 -127.998)"/><path class="e" d="M227.09,128a5.223,5.223,0,0,0-5.224,5.224v7.836a5.224,5.224,0,0,0,10.449,0v-7.836A5.223,5.223,0,0,0,227.09,128Z" transform="translate(-211.418 -127.998)"/><path class="e" d="M261.224,128A5.223,5.223,0,0,0,256,133.222v7.836a5.224,5.224,0,1,0,10.449,0v-7.836A5.223,5.223,0,0,0,261.224,128Z" transform="translate(-235.103 -127.998)"/><path class="e" d="M295.357,128a5.223,5.223,0,0,0-5.224,5.224v7.836a5.224,5.224,0,0,0,10.449,0v-7.836A5.223,5.223,0,0,0,295.357,128Z" transform="translate(-258.788 -127.998)"/></g><g transform="translate(13.061 99.61)"><path class="f" d="M49.2,181.462a6.529,6.529,0,0,1-6.53-6.53v18.284a6.53,6.53,0,1,0,13.06,0V174.932A6.529,6.529,0,0,1,49.2,181.462Z" transform="translate(-42.667 -173.626)"/><path class="f" d="M93.169,178.5a7.836,7.836,0,0,1-7.836-7.836V202.01a7.836,7.836,0,1,0,15.673,0V170.665A7.836,7.836,0,0,1,93.169,178.5Z" transform="translate(-72.273 -170.665)"/></g><rect class="c" width="10.447" height="7.836" transform="translate(143.664 104.833)"/><g transform="translate(114.932 99.61)"><path class="f" d="M433.2,181.462a6.529,6.529,0,0,0,6.53-6.53v18.284a6.53,6.53,0,1,1-13.06,0V174.932A6.529,6.529,0,0,0,433.2,181.462Z" transform="translate(-410.994 -173.626)"/><path class="f" d="M383.3,178.5a7.836,7.836,0,0,0,7.836-7.836V202.01a7.836,7.836,0,1,1-15.672,0V170.665A7.836,7.836,0,0,0,383.3,178.5Z" transform="translate(-375.467 -170.665)"/></g><path class="e" d="M196.787,221.685c0-7.836-3.994-14.393-9.926-16.365l-5.746-1.92v-5.224h7.836a5.207,5.207,0,0,0,4.5-2.612,5.1,5.1,0,0,0,.609-3.683,5.519,5.519,0,0,0-5.485-4.153H170.666v19.18a10.453,10.453,0,0,0,3.061,7.39l7.387,7.387V266.09h31.345V221.685Z" transform="translate(-118.425 -82.894)"/><path d="M2.612,115.283h7.836V119.2a9.084,9.084,0,0,0,13.061,8.226v3.529a10.448,10.448,0,1,0,20.9,0V115.283h5.224v8.732a12.972,12.972,0,0,0,3.827,9.234l6.622,6.624V183.2H65.3V138.791a2.606,2.606,0,0,0-.765-1.847l-7.387-7.39a7.885,7.885,0,0,1-2.3-5.54V107.446h15.3a3.137,3.137,0,0,1,2.528,1.225c.018.026.039.052.058.081a2.306,2.306,0,0,1,.261.572,2.469,2.469,0,0,1,.1.494,2.219,2.219,0,0,1,0,.494,2.166,2.166,0,0,1-.034.261,2.726,2.726,0,0,1-.3.784,2.576,2.576,0,0,1-2.239,1.314H62.69a2.613,2.613,0,0,0-2.612,2.612v5.224a2.61,2.61,0,0,0,1.787,2.479l5.746,1.92c4.665,1.549,8.139,8.609,8.139,13.886h5.224c0-7.186-4.472-16.435-11.7-18.843L65.3,118.624v-.729h5.224a7.785,7.785,0,0,0,5.746-2.612H99.259v9.579a7.884,7.884,0,0,1-1.567,4.7l-5.746,7.661a2.611,2.611,0,0,0-.523,1.567V183.2h5.224V139.661l5.224-6.964a13.134,13.134,0,0,0,2.612-7.836v-9.579h7.836v15.673a10.448,10.448,0,0,0,20.9,0v-3.529a9.048,9.048,0,0,0,3.918.917,9.142,9.142,0,0,0,9.142-9.142v-3.918h7.836a2.613,2.613,0,0,0,2.612-2.612V97a2.613,2.613,0,0,0-2.612-2.612h-7.836V90.467a9.084,9.084,0,0,0-13.061-8.226V78.713a10.448,10.448,0,0,0-20.9,0V94.386H101.871V91.774a7.8,7.8,0,0,0-13.061-5.8,7.716,7.716,0,0,0-10.448,0,7.716,7.716,0,0,0-10.448,0,7.8,7.8,0,0,0-13.061,5.8v2.612H44.406V78.713a10.448,10.448,0,0,0-20.9,0v3.529a9.048,9.048,0,0,0-3.918-.917,9.142,9.142,0,0,0-9.142,9.142v3.918H2.612A2.613,2.613,0,0,0,0,97v15.673A2.613,2.613,0,0,0,2.612,115.283ZM151.5,99.61v10.448h-5.224V99.61ZM137.134,86.549a3.919,3.919,0,0,1,3.918,3.918V119.2a3.918,3.918,0,0,1-7.836,0V90.468A3.919,3.919,0,0,1,137.134,86.549Zm-19.591-7.836a5.224,5.224,0,1,1,10.449,0v52.242a5.224,5.224,0,1,1-10.449,0Zm-5.224,20.9v10.448H78.363v-.073a7.907,7.907,0,0,0-.162-1.546c-.016-.07-.05-.136-.065-.209-.047-.191-.115-.368-.175-.554a7.351,7.351,0,0,0-.4-.977c-.076-.157-.112-.334-.2-.486.029-.021.058-.042.086-.065.12-.078.225-.172.339-.261.2-.146.4-.282.585-.447.152.136.327.243.489.366s.321.261.5.371a8.263,8.263,0,0,0,.763.415c.178.086.345.188.523.261a7.281,7.281,0,0,0,.935.29c.165.044.319.107.489.141a7.571,7.571,0,0,0,3.046,0c.17-.034.324-.1.489-.141a7.28,7.28,0,0,0,.935-.29c.186-.076.353-.178.523-.261a8.682,8.682,0,0,0,.765-.415c.172-.115.329-.245.494-.371s.337-.23.489-.366c.152.136.327.243.489.366s.321.261.5.371a8.262,8.262,0,0,0,.763.415c.178.086.345.188.523.261a7.28,7.28,0,0,0,.935.29c.165.044.319.107.489.141a7.817,7.817,0,0,0,9.216-6.1,7.955,7.955,0,0,0,.157-1.572H112.32ZM94.035,89.161a2.613,2.613,0,0,1,2.612,2.612V99.61a2.612,2.612,0,0,1-5.224,0V91.773A2.613,2.613,0,0,1,94.035,89.161Zm-10.448,0A2.613,2.613,0,0,1,86.2,91.773V99.61a2.612,2.612,0,1,1-5.224,0V91.773A2.613,2.613,0,0,1,83.587,89.161Zm-10.449,0a2.613,2.613,0,0,1,2.612,2.612V99.61a2.612,2.612,0,0,1-5.224,0V91.773A2.613,2.613,0,0,1,73.138,89.161Zm-13.06,2.612a2.612,2.612,0,0,1,5.224,0V99.61a2.612,2.612,0,0,1-5.224,0ZM54.854,99.61A7.743,7.743,0,0,0,55,101.081c.029.154.078.3.115.444.06.232.1.473.183.7H52.241a2.613,2.613,0,0,0-2.612,2.612v5.224H44.4V99.61Zm-26.121-20.9a5.224,5.224,0,1,1,10.448,0v52.242a5.224,5.224,0,1,1-10.449,0V78.713ZM15.673,90.468a3.918,3.918,0,1,1,7.836,0V119.2a3.918,3.918,0,0,1-7.836,0ZM5.224,99.61h5.224v10.448H5.224Z"/></g></svg>